<svg xmlns:svg="http://www.w3.org/2000/svg" xmlns="http://www.w3.org/2000/svg" version="1.1" x="0" y="0" width="64" height="64" viewBox="0 0 26 26" enable-background="new 0 0 26 26" xml:space="preserve"><g transform="matrix(1.8530197,0,0,2.028848,-11.074527,2.3715701)"><path d="m22.9 21.9c0 0.5 0 0.2 0 0.7 0 2.7-5.1 3.3-9.9 3.3-4.8 0-9.9-0.6-9.9-3.3 0-0.5 0-0.2 0-0.7 0-2 3.5-3.9 6.5-5 0.2-0.1 1.3-0.6 0.7-2.2C8.9 13.3 8 12 8 9H18c0 3-0.9 4.3-2.3 5.7h0c-0.6 1.7 0.3 2.1 0.5 2.2 3.2 1 6.7 3 6.7 5zM18.7 5.8c0-2.1-1.5-4-3.6-4.7C14.7 1.1 14 5 14 5V0.7C14 0.3 13.7 0.1 13.4 0.1H12.6C12.3 0.1 12 0.3 12 0.7v4.3c0 0-0.7-3.9-1.1-3.8C8.8 1.8 7.3 3.7 7.3 5.8 7.3 6.4 6 5.6 6 8H20C20 5.6 18.7 6.4 18.7 5.8z" fill="#f63"/></g><rect width="24.3" height="6.1" x="0.9" y="19.6" style="fill:#fff;stroke-width:0.8;stroke:#fff"/><path d="m13.8 17.2a2.3 2.4 0 1 1-4.5 0 2.3 2.4 0 1 1 4.5 0z" transform="matrix(1.1457439,0,0,1.1387201,-0.2498403,-1.6449362)" style="fill:#fff;stroke:#fff"/><path d="m13.8 17.2a2.3 2.4 0 1 1-4.5 0 2.3 2.4 0 1 1 4.5 0z" transform="matrix(0.96279631,0,0,0.9163965,1.887591,1.925811)" style="fill:#fff;stroke:#F63"/></svg>